<svg xmlns="http://www.w3.org/2000/svg" width="473.81" height="289.97" viewBox="0 0 473.81 289.97">
  <g id="Groupe_9477" data-name="Groupe 9477" transform="translate(-729.443 -355)">
    <path id="Tracé_6931" data-name="Tracé 6931" d="M283.545,405.441c11.537,0,19.731-4.269,27.768-12.477l9.707,9.768c-8.99,10.671-20.291,18.14-37.238,18.14-27.451,0-45.831-19.7-45.831-44.49,0-24.708,18.938-44.491,44.241-44.491,24.9,0,42.569,19.291,42.569,42.85a36.118,36.118,0,0,1-.8,7.387H256.411c1.75,13.462,12.571,23.313,27.134,23.313m-26.576-37.6H305.9c-2.306-11.9-11.536-20.524-23.789-20.524-12.1,0-22.2,8.62-25.143,20.524" transform="translate(670.967 125.908)" fill="#A30059"/>
    <path id="Tracé_6932" data-name="Tracé 6932" d="M283.545,405.441c11.537,0,19.731-4.269,27.768-12.477l9.707,9.768c-8.99,10.671-20.291,18.14-37.238,18.14-27.451,0-45.831-19.7-45.831-44.49,0-24.708,18.938-44.491,44.241-44.491,24.9,0,42.569,19.291,42.569,42.85a36.118,36.118,0,0,1-.8,7.387H256.411C258.161,395.59,268.982,405.441,283.545,405.441Zm-26.576-37.6H305.9c-2.306-11.9-11.536-20.524-23.789-20.524C270.017,347.322,259.912,355.942,256.969,367.846Z" transform="translate(670.967 125.908)" fill="#A30059"/>
    <path id="Tracé_6933" data-name="Tracé 6933" d="M477.776,331.891c25.94,0,45.116,19.783,45.116,44.49s-19.176,44.491-45.116,44.491-45.2-19.782-45.2-44.491,19.258-44.49,45.2-44.49m0,72.319c15.2,0,26.815-12.314,26.815-27.829,0-15.432-11.617-27.826-26.815-27.826s-26.814,12.394-26.814,27.826c0,15.515,11.617,27.829,26.814,27.829" transform="translate(670.967 125.908)" fill="#A30059"/>
    <path id="Tracé_6934" data-name="Tracé 6934" d="M477.776,331.891c25.94,0,45.116,19.783,45.116,44.49s-19.176,44.491-45.116,44.491-45.2-19.782-45.2-44.491S451.837,331.891,477.776,331.891Zm0,72.319c15.2,0,26.815-12.314,26.815-27.829,0-15.432-11.617-27.826-26.815-27.826s-26.814,12.394-26.814,27.826C450.962,391.9,462.579,404.21,477.776,404.21Z" transform="translate(670.967 125.908)" fill="#A30059"/>
    <path id="Tracé_6935" data-name="Tracé 6935" d="M133.121,249.1a20.01,20.01,0,1,1-20.01-20.01,20.01,20.01,0,0,1,20.01,20.01" transform="translate(670.967 125.908)" fill="#A30059"/>
    <path id="Tracé_6936" data-name="Tracé 6936" d="M94.713,346.455l20.207,35.5a68.882,68.882,0,0,0,59.778,35.1L131.748,341.6l42.574-71.8a70.294,70.294,0,0,0-60.389,34.725L94.713,336.94" transform="translate(670.967 125.908)" fill="#A30059"/>
    <path id="Tracé_6937" data-name="Tracé 6937" d="M94.713,336.94V301.648s2.083-32.47-33.439-32.47L61.428,410.8s-.38,6.022,6.4,6.1c7.47.153,22.258.153,22.258.153a4.851,4.851,0,0,0,4.624-5.184V346.455" transform="translate(670.967 125.908)" fill="#A30059"/>
    <path id="Tracé_7036" data-name="Tracé 7036" d="M28.436-55.368q10.237,0,15.888,5.394A19.048,19.048,0,0,1,50.6-37.719H43.48a14.814,14.814,0,0,0-4.825-8.256q-3.614-3.045-10.145-3.045a16.269,16.269,0,0,0-12.861,5.6q-4.9,5.6-4.9,17.154,0,9.467,4.421,15.356T28.363-5.027q8.072,0,12.292-6.2a23.583,23.583,0,0,0,3.339-8.586h7.118A24.323,24.323,0,0,1,44.8-5.54Q38.38,1.394,27.482,1.394A22.858,22.858,0,0,1,11.7-4.293Q3.3-11.815,3.3-27.519q0-11.925,6.311-19.557Q16.438-55.368,28.436-55.368Zm54.818,0q14.273,0,21.135,9.173,5.357,7.155,5.357,18.309,0,12.072-6.128,20.071Q96.427,1.578,83.107,1.578q-12.439,0-19.557-8.219Q57.2-14.567,57.2-26.675q0-10.934,5.43-18.713Q69.6-55.368,83.254-55.368Zm.734,50.415q9.65,0,13.961-6.916a29.439,29.439,0,0,0,4.311-15.906q0-9.5-4.972-15.3t-13.594-5.8a17.7,17.7,0,0,0-13.649,5.742Q64.761-37.389,64.761-26.2q0,8.953,4.531,15.1T83.988-4.953ZM118.442-53.9h8.623L154.29-10.237V-53.9h6.935V0h-8.182L125.413-43.627V0h-6.971Zm59.038,36.509a14.73,14.73,0,0,0,2.165,7.448q3.633,5.357,12.806,5.357a22.666,22.666,0,0,0,7.485-1.174q6.531-2.275,6.531-8.146,0-4.4-2.752-6.274a27.787,27.787,0,0,0-8.733-3.192l-7.3-1.651q-7.155-1.614-10.127-3.559-5.137-3.376-5.137-10.09A15.538,15.538,0,0,1,177.443-50.6q5.027-4.66,14.237-4.66a24.727,24.727,0,0,1,14.4,4.091q5.926,4.091,5.926,13.081h-6.861a13.506,13.506,0,0,0-2.348-6.641q-3.339-4.22-11.338-4.22-6.458,0-9.283,2.715a8.5,8.5,0,0,0-2.825,6.311,6.163,6.163,0,0,0,3.3,5.8q2.165,1.174,9.8,2.935l7.559,1.725a23.159,23.159,0,0,1,8.439,3.412q5.137,3.779,5.137,10.971,0,8.953-6.513,12.806a29.168,29.168,0,0,1-15.135,3.853q-10.054,0-15.741-5.137-5.687-5.1-5.577-13.833ZM230.756-53.9v33.316a19.6,19.6,0,0,0,2.2,9.76q3.266,5.871,11.008,5.871,9.283,0,12.622-6.348a20.208,20.208,0,0,0,1.8-9.283V-53.9H265.8V-23.63q0,9.944-2.679,15.3-4.917,9.76-18.566,9.76t-18.529-9.76q-2.679-5.357-2.679-15.3V-53.9Zm46.342,0h7.3v47.48h27.3V0H277.1Zm71.042,0v6.421H329.978V0h-7.412V-47.48H304.4V-53.9Zm8.329,0h7.375V0h-7.375Zm19.227,0h8.623l27.225,43.664V-53.9h6.935V0H410.3L382.668-43.627V0H375.7Zm77.567-1.394A27.689,27.689,0,0,1,466.4-52.36q8.036,4.22,9.833,14.787H469q-1.321-5.907-5.467-8.6a18.817,18.817,0,0,0-10.457-2.7,16.388,16.388,0,0,0-12.6,5.614q-5.119,5.614-5.119,16.732,0,9.613,4.22,15.649t13.76,6.036a17.569,17.569,0,0,0,12.09-4.238q4.788-4.238,4.9-13.7H453.447V-28.84h23.666V0h-4.7l-1.761-6.935a27.683,27.683,0,0,1-6.568,5.651q-4.807,2.715-12.218,2.715a23.8,23.8,0,0,1-16.475-6.2q-7.522-7.779-7.522-21.355,0-13.539,7.338-21.538Q442.182-55.295,453.263-55.295Z" transform="translate(726.141 643.393)" fill="#63666A"/>
    <path id="Tracé_6938" data-name="Tracé 6938" d="M199.564,343.925l-5.808-3.825s.135-2.089-3.536-2.089a40.716,40.716,0,0,1-5-.195l1.036,79.523,18.33.387s3.476,1.351,3.476-4.252.194-45.98.194-45.98,1.159-13.486,14.1-10.975c3.865,1.352,5.8,2.282,7.922-1s8.227-15.686,8.227-15.686,1.738-2.781-3.091-4.9c-1.621-.713-23.8-7.783-35.855,9" transform="translate(670.967 125.908)" fill="#A30059"/>
    <path id="Tracé_6939" data-name="Tracé 6939" d="M205.489,370.711V350.063s-3.229-19-21.4-19l.078,82.866s-.2,3.523,3.274,3.568c3.82.089,15.68.089,15.68.089s2.364-.089,2.364-3.033V376.279" transform="translate(670.967 125.908)" fill="#A30059"/>
    <path id="Tracé_6940" data-name="Tracé 6940" d="M358.878,341.571a30.348,30.348,0,0,1,3.928-4.6,26.169,26.169,0,0,1,5.527-4.054,31.889,31.889,0,0,1,7.3-2.886,35.822,35.822,0,0,1,9.246-1.1,34.779,34.779,0,0,1,14.6,2.92,31.027,31.027,0,0,1,10.778,8,34.7,34.7,0,0,1,6.64,11.956,47.008,47.008,0,0,1,2.26,14.77V412.4a5.183,5.183,0,0,1-1.182,3.71,4.492,4.492,0,0,1-3.408,1.238H404q-2.784,0-3.719-1.032a5.422,5.422,0,0,1-.939-3.64V366.922a20.774,20.774,0,0,0-1.252-7.111,19.355,19.355,0,0,0-3.651-6.217,17.674,17.674,0,0,0-5.945-4.4,19.656,19.656,0,0,0-14.844-.379,21.8,21.8,0,0,0-6.293,3.608,19.848,19.848,0,0,0-4.728,5.668,15.6,15.6,0,0,0-1.947,7.523" transform="translate(670.967 125.908)" fill="#A30059"/>
    <path id="Tracé_6941" data-name="Tracé 6941" d="M361.868,366.892V348.185s-3.248-17.212-21.5-17.212l.078,83.065a3.048,3.048,0,0,0,3.291,3.231c3.838.083,15.754.083,15.754.083a2.531,2.531,0,0,0,2.379-2.749V371.936" transform="translate(670.967 125.908)" fill="#A30059"/>
  </g>
</svg>
